<svg xmlns="http://www.w3.org/2000/svg" width="119.213" height="35.545" viewBox="0 0 119.213 35.545"><path d="M45.631,244.224a12.44,12.44,0,0,0-1.649-5.841,10.611,10.611,0,0,0-4.033-3.974,14.145,14.145,0,0,0-7.173-1.709,14.325,14.325,0,0,0-7.153,1.709,11.15,11.15,0,0,0-4.014,3.974A12.314,12.314,0,0,0,20,244.1v13.054a11.65,11.65,0,0,0,1.649,5.6c1.51,2.5,4.669,5.484,11.127,5.484,6.477,0,9.636-3,11.186-5.543a11.7,11.7,0,0,0,1.649-5.643V249.39H30.948l1.431,5.4H39.65v2.245a5.758,5.758,0,0,1-.894,2.722c-1.073,1.649-3.06,2.484-5.961,2.484-2.841,0-4.828-.815-5.9-2.444a5.841,5.841,0,0,1-.874-2.682V244.125a6.351,6.351,0,0,1,.894-2.861c1.073-1.709,3-2.543,5.881-2.543,2.9,0,4.828.834,5.921,2.543a6.7,6.7,0,0,1,.894,2.98v-.04l6.02.02Z" transform="translate(-20 -232.7)" fill="#525252"/><path d="M245.511,244.224a12.44,12.44,0,0,0-1.649-5.841,10.611,10.611,0,0,0-4.033-3.974,15.784,15.784,0,0,0-14.286,0,10.846,10.846,0,0,0-4.014,3.974,12.135,12.135,0,0,0-1.629,5.7v13.054a11.65,11.65,0,0,0,1.649,5.6c1.51,2.5,4.669,5.484,11.127,5.484,6.477,0,9.636-3,11.186-5.543a11.7,11.7,0,0,0,1.649-5.643V249.39H230.828l1.431,5.4h7.252v2.245a5.758,5.758,0,0,1-.894,2.722c-1.073,1.649-3.06,2.484-5.961,2.484-2.841,0-4.828-.815-5.9-2.444a5.841,5.841,0,0,1-.874-2.682V244.125a6.351,6.351,0,0,1,.894-2.861c1.073-1.709,3-2.543,5.881-2.543,2.9,0,4.828.834,5.921,2.543a6.7,6.7,0,0,1,.894,2.98v-.04l6.04.02Z" transform="translate(-180.182 -232.7)" fill="#525252"/><rect width="6" height="34.174" transform="translate(29.644 0.676)" fill="#525252"/><path d="M371.285,236.02l-5.265,15.6-5.822-15.6h-6.4l9.12,24.458a14.81,14.81,0,0,1-1.649,3.06c-.616.576-1.152.636-3.676.616h-1.013v6.02h1.788c2.543,0,4.947-.2,7.252-2.484a1.977,1.977,0,0,0,.2-.219c2.345-2.861,4.013-8.246,4.252-9.1l7.51-22.352h-6.338V236h.04Z" transform="translate(-287.478 -235.344)" fill="#525252"/><path d="M445.057,270.354l2.682-7.312h12.815l2.682,7.312h6.4l-2.682-7.312h7.689l-1.431-5.4h-8.285L457,236.2h-5.8l-12.6,34.174h6.418v-.02Zm9.1-24.7,4.431,11.981h-8.842Z" transform="translate(-355.429 -235.505)" fill="#525252"/></svg>