<svg id="evpoq56ljh71" xmlns="http://www.w3.org/2000/svg" xmlns:xlink="http://www.w3.org/1999/xlink" viewBox="0 0 124.104000 124.104000" shape-rendering="geometricPrecision" text-rendering="geometricPrecision"><style><![CDATA[#evpoq56ljh711_tr {animation: evpoq56ljh711_tr__tr 2300ms linear infinite normal forwards}@keyframes evpoq56ljh711_tr__tr { 0% {transform: translate(567.849487px,111.308006px) rotate(360deg)} 33.043478% {transform: translate(567.849487px,111.308006px) rotate(0deg)} 100% {transform: translate(567.849487px,111.308006px) rotate(0deg)} }#evpoq56ljh716_tr {animation: evpoq56ljh716_tr__tr 2300ms linear infinite normal forwards}@keyframes evpoq56ljh716_tr__tr { 0% {transform: translate(638.317000px,112.150000px) rotate(360deg)} 22.173913% {transform: translate(638.317000px,112.150000px) rotate(360deg)} 55.652174% {transform: translate(638.317000px,112.150000px) rotate(0deg)} 100% {transform: translate(638.317000px,112.150000px) rotate(0deg)} }#evpoq56ljh718_tr {animation: evpoq56ljh718_tr__tr 2300ms linear infinite normal forwards}@keyframes evpoq56ljh718_tr__tr { 0% {transform: translate(636.546265px,185.446991px) rotate(720deg)} 69.130435% {transform: translate(636.546265px,185.446991px) rotate(720deg)} 100% {transform: translate(636.546265px,185.446991px) rotate(360deg)} }#evpoq56ljh724_tr {animation: evpoq56ljh724_tr__tr 2300ms linear infinite normal forwards}@keyframes evpoq56ljh724_tr__tr { 0% {transform: translate(567.794181px,181.832181px) rotate(360deg)} 48.260870% {transform: translate(567.794181px,181.832181px) rotate(360deg)} 77.826087% {transform: translate(567.794181px,181.832181px) rotate(0deg)} 100% {transform: translate(567.794181px,181.832181px) rotate(0deg)} }]]></style><g id="evpoq56ljh72" transform="matrix(1 0 0 1 -546.89900000000000 -90.41400000000000)"><path id="evpoq56ljh73" d="M634.341000,160.383000C643.572024,160.376202,651.529411,166.874807,653.367010,175.921082C655.204609,184.967357,650.413434,194.055618,641.911370,197.651000C633.409306,201.246382,623.551299,198.353016,618.341000,190.733000" transform="matrix(1 0 0 1 7.50200000000000 7.34400000000000)" fill="none" stroke="rgb(138,138,142)" stroke-width="3" stroke-linecap="round" stroke-linejoin="round" stroke-dasharray="0.100000,4"/><path id="evpoq56ljh74" d="M645.475000,98.985000C652.308245,102.869695,656.122109,110.493730,655.132941,118.291528C654.143772,126.089325,648.547084,132.519609,640.960314,134.575092C633.373543,136.630575,625.296254,133.904979,620.506000,127.673000" transform="matrix(1 0 0 1 7.73400000000000 0.75900000000000)" fill="none" stroke="rgb(138,138,142)" stroke-width="3" stroke-linecap="round" stroke-linejoin="round" stroke-dasharray="0.100000,4"/><path id="evpoq56ljh75" d="M581.783000,98.985000C588.616245,102.869695,592.430109,110.493730,591.440941,118.291528C590.451772,126.089325,584.855084,132.519609,577.268314,134.575092C569.681543,136.630575,561.604254,133.904979,556.814000,127.673000" transform="matrix(1 0 0 1 0.90300000000000 0.75900000000000)" fill="none" stroke="rgb(138,138,142)" stroke-width="3" stroke-linecap="round" stroke-linejoin="round" stroke-dasharray="0.100000,4"/><path id="evpoq56ljh76" d="M581.783000,162.677000C588.616245,166.561695,592.430109,174.185730,591.440941,181.983528C590.451772,189.781325,584.855084,196.211609,577.268314,198.267092C569.681543,200.322575,561.604254,197.596979,556.814000,191.365000" transform="matrix(1 0 0 1 0.90300000000000 7.59000000000000)" fill="none" stroke="rgb(138,138,142)" stroke-width="3" stroke-linecap="round" stroke-linejoin="round" stroke-dasharray="0.100000,4"/><path id="evpoq56ljh77" d="M582.354000,92.507000C592.464001,96.584776,598.938384,106.556621,598.549346,117.451071C598.160307,128.345520,590.991136,137.830156,580.616025,141.176413C570.240913,144.522670,558.881091,141.014139,552.200000,132.400000" transform="matrix(1 0 0 1 0.40800000000000 0.06400000000000)" fill="none" stroke="rgb(138,138,142)" stroke-width="3" stroke-linecap="round" stroke-linejoin="round" stroke-dasharray="0.100000,4"/><path id="evpoq56ljh78" d="M646.046000,92.507000C656.160070,96.580722,662.639642,106.552577,662.253210,117.449379C661.866777,128.346181,654.697108,137.833994,644.319876,141.181034C633.942644,144.528075,622.580501,141.017455,615.900000,132.400000" transform="matrix(1 0 0 1 7.24000000000000 0.06400000000000)" fill="none" stroke="rgb(138,138,142)" stroke-width="3" stroke-linecap="round" stroke-linejoin="round" stroke-dasharray="0.100000,4"/><path id="evpoq56ljh79" d="M582.354000,156.200000C592.467649,160.274744,598.946209,170.247244,598.558682,181.143998C598.171156,192.040752,591.000544,201.527840,580.622987,204.873845C570.245431,208.219849,558.883645,204.708107,552.204000,196.090000" transform="matrix(1 0 0 1 0.40800000000000 6.89500000000000)" fill="none" stroke="rgb(138,138,142)" stroke-width="3" stroke-linecap="round" stroke-linejoin="round" stroke-dasharray="0.100000,4"/><path id="evpoq56ljh710" d="M653.632000,161.869000C660.189919,168.820733,662.386745,178.818909,659.347086,187.879448C656.307426,196.939987,648.525281,203.590384,639.101686,205.180586C629.678090,206.770788,620.144551,203.042356,614.300000,195.481000" transform="matrix(1 0 0 1 7.06900000000000 7.50400000000000)" fill="none" stroke="rgb(138,138,142)" stroke-width="3" stroke-linecap="round" stroke-linejoin="round" stroke-dasharray="0.100000,4"/><g id="evpoq56ljh711_tr" transform="translate(567.849487,111.308006) rotate(360)"><g id="evpoq56ljh711" transform="translate(-567.849487,-111.308006)"><circle id="evpoq56ljh712" r="19.394000" transform="matrix(1 0 0 1 567.77922063000005 111.30800221000001)" fill="rgb(255,255,255)" stroke="rgb(22,38,54)" stroke-width="3" stroke-miterlimit="10"/><path id="evpoq56ljh713" d="M565.915000,91.914000C572.876809,91.864008,579.331284,95.549416,582.826700,101.570326C586.322115,107.591236,586.322115,115.023764,582.826700,121.044674C579.331284,127.065584,572.876809,130.750992,565.915000,130.701000" transform="matrix(1 0 0 1 1.86540125500000 0.00050000000000)" fill="none" stroke="rgb(83,228,192)" stroke-width="3" stroke-miterlimit="10"/></g></g><circle id="evpoq56ljh714" r="5.159000" transform="matrix(1 0 0 1 567.79399999999998 111.30800000000001)" fill="none" stroke="rgb(83,228,192)" stroke-width="3" stroke-miterlimit="10"/><path id="evpoq56ljh715" d="M587.188000,175C587.187346,184.531376,580.262912,192.650402,570.851093,194.155324C561.439274,195.660246,552.328399,190.105219,549.355687,181.049275C546.382975,171.993332,550.429117,162.119371,558.901802,157.753510C567.374487,153.387650,577.763612,155.823312,583.413000,163.500000C585.865929,166.832460,587.188704,170.862108,587.188000,175Z" transform="matrix(1 0 0 1 0 6.83200000000000)" fill="rgb(255,255,255)" stroke="rgb(22,38,54)" stroke-width="3" stroke-miterlimit="10"/><g id="evpoq56ljh716_tr" transform="translate(638.317000,112.150000) rotate(360)"><path id="evpoq56ljh716" d="M631.486000,92.674000C642.196880,92.674552,650.879368,101.357786,650.879000,112.068667C650.878632,122.779547,642.195547,131.462184,631.484667,131.462000C620.773786,131.461816,612.091000,122.778880,612.091000,112.068000" transform="translate(-631.485000,-112.068000)" fill="none" stroke="rgb(83,228,192)" stroke-width="3" stroke-miterlimit="10"/></g><circle id="evpoq56ljh717" r="5.159000" transform="matrix(1 0 0 1 638.31799999999998 112.15000000000001)" fill="none" stroke="rgb(83,228,192)" stroke-width="3" stroke-miterlimit="10"/><g id="evpoq56ljh718_tr" transform="translate(636.546265,185.446991) rotate(720)"><g id="evpoq56ljh718" transform="translate(-636.546265,-185.446991)"><g id="evpoq56ljh719"><path id="evpoq56ljh720" d="M650.594000,175C650.594000,169.856391,648.550709,164.923452,644.913629,161.286371C641.276548,157.649291,636.343609,155.606000,631.200000,155.606000L631.200000,175Z" transform="matrix(1 0 0 1 8.88100000000000 6.83200000000000)" fill="rgb(255,255,255)" stroke="rgb(83,228,192)" stroke-width="3" stroke-miterlimit="10"/><path id="evpoq56ljh721" d="M645.742000,177.872000C645.742000,186.798026,638.506026,194.034000,629.580000,194.034000C620.653974,194.034000,613.418000,186.798026,613.418000,177.872000C613.418000,168.945974,620.653974,161.710000,629.580000,161.710000" transform="matrix(1 0 0 1 6.97400000000005 7.48699999999999)" fill="none" stroke="rgb(22,38,54)" stroke-width="3" stroke-miterlimit="10"/></g><g id="evpoq56ljh722" transform="matrix(-1 0 -0 -1 1273.09250220000013 370.89399608499991)"><path id="evpoq56ljh723" d="M650.594000,175C650.594000,169.856391,648.550709,164.923452,644.913629,161.286371C641.276548,157.649291,636.343609,155.606000,631.200000,155.606000L631.200000,175Z" transform="matrix(1 0 0 1 8.88100000000000 6.83200000000000)" opacity="0" fill="rgb(255,255,255)" stroke="rgb(83,228,192)" stroke-width="3" stroke-miterlimit="10"/></g></g></g><g id="evpoq56ljh724_tr" transform="translate(567.794181,181.832181) rotate(360)"><path id="evpoq56ljh724" d="M567.112000,161.961000C572.110435,161.961000,576.616674,164.972038,578.529399,169.590029C580.442124,174.208020,579.384643,179.523495,575.850072,183.057779C572.315501,186.592064,566.999941,187.649115,562.382105,185.736016C557.764269,183.822918,554.753596,179.316435,554.754000,174.318000" transform="translate(-567.112181,-174.319181)" fill="none" stroke="rgb(83,228,192)" stroke-width="3" stroke-miterlimit="10"/></g><circle id="evpoq56ljh725" r="5.159000" transform="matrix(1 0 0 1 567.79399999999998 181.83199999999999)" fill="rgb(255,255,255)" stroke="rgb(83,228,192)" stroke-width="3" stroke-miterlimit="10"/></g></svg>