<svg xmlns="http://www.w3.org/2000/svg" width="38" height="49.313" viewBox="0 0 38 49.313"><g transform="translate(-301.796 -129.705)"><path d="M306.62,170.906H302.8V136.069h27.076v3.824" transform="translate(0 -1.812)" fill="none" stroke="#fff" stroke-miterlimit="10" stroke-width="2"/><path d="M345.275,190.723" transform="translate(-15.403 -21.629)" fill="#fff" stroke="#66bda3" stroke-miterlimit="10" stroke-width="2"/><path d="M329.06,176.906H309.433a.637.637,0,0,1-.637-.637V142.706a.638.638,0,0,1,.637-.637h25.8a.638.638,0,0,1,.637.637v27.387a.639.639,0,0,1-.187.451l-6.175,6.175A.636.636,0,0,1,329.06,176.906Z" transform="translate(-2.176 -3.988)" fill="#fff"/><path d="M341,193V186.45h6.548Z" transform="translate(-13.853 -20.08)" fill="#fff" stroke="#0f1d29" stroke-linejoin="round" stroke-width="2"/><path d="M316.8,185.268h18.616l8.461-8.461V151.069" transform="translate(-5.076 -7.251)" fill="none" stroke="#77777b" stroke-linecap="round" stroke-linejoin="round" stroke-width="2" stroke-dasharray="0.1 4"/><path d="M312.8,181.268h19.89l7.186-7.186V147.069" transform="translate(-3.626 -5.801)" fill="none" stroke="#77777b" stroke-linecap="round" stroke-linejoin="round" stroke-width="2" stroke-dasharray="0.1 4"/><rect width="6.621" height="7.829" transform="translate(327.922 133.791) rotate(30)" fill="#fff" stroke="#66bda3" stroke-miterlimit="10" stroke-width="2"/><rect width="11.254" height="3.606" rx="1" transform="translate(326.817 131.071) rotate(30)" fill="#fff" stroke="#66bda3" stroke-miterlimit="10" stroke-width="2"/><path d="M335.341,154.579l3.94-5.542-3.069-1.772-3.346,7.313Z" transform="translate(-10.904 -5.872)" fill="#fff" stroke="#66bda3" stroke-miterlimit="10" stroke-width="2"/></g></svg>