<svg xmlns="http://www.w3.org/2000/svg" width="45.487" height="48.682" viewBox="0 0 45.487 48.682"><g transform="translate(-160.834 -127.259)"><path d="M204.762,140.617A24.315,24.315,0,0,1,173.5,176.368" transform="translate(-4.184 -4.427)" fill="none" stroke="#77777b" stroke-linecap="round" stroke-linejoin="round" stroke-width="2" stroke-dasharray="0.1 4"/><path d="M198.518,139.149A21.746,21.746,0,0,1,167.764,169.9" transform="translate(-2.127 -3.901)" fill="none" stroke="#77777b" stroke-linecap="round" stroke-linejoin="round" stroke-width="2" stroke-dasharray="0.1 4"/><line x1="12.211" y2="18.993" transform="translate(168.803 150.625)" fill="#0f1d29" stroke="#fff" stroke-linecap="round" stroke-miterlimit="10" stroke-width="2"/><line x2="12.211" y2="18.993" transform="translate(181.014 150.625)" fill="#0f1d29" stroke="#fff" stroke-linecap="round" stroke-miterlimit="10" stroke-width="2"/><circle cx="19.18" cy="19.18" r="19.18" transform="translate(161.834 131.445)" fill="#0f1d29" stroke="#fff" stroke-miterlimit="10" stroke-width="2"/><circle cx="15.725" cy="15.725" r="15.725" transform="translate(165.289 134.9)" fill="#fff"/><line y1="10.058" transform="translate(181.014 140.567)" fill="none" stroke="#66bda3" stroke-linecap="round" stroke-miterlimit="10" stroke-width="2"/><path d="M198.541,163.123h-6.8" transform="translate(-10.724 -12.498)" fill="none" stroke="#0f1d29" stroke-linecap="round" stroke-linejoin="round" stroke-width="2"/><path d="M169.4,134.5a4.148,4.148,0,1,1,7.18-4.157" transform="translate(-2.512)" fill="none" stroke="#66bda3" stroke-linecap="round" stroke-miterlimit="10" stroke-width="2"/><path d="M209.751,134.5a4.149,4.149,0,0,0-7.181-4.157" transform="translate(-14.608)" fill="none" stroke="#66bda3" stroke-linecap="round" stroke-miterlimit="10" stroke-width="2"/></g></svg>