<svg xmlns="http://www.w3.org/2000/svg" xmlns:xlink="http://www.w3.org/1999/xlink" width="75.677" height="75.678" viewBox="0 0 75.677 75.678"><defs><clipPath id="a"><path d="M0-79.223H75.678V-3.545H0Z" transform="translate(0 79.223)" fill="#53e4c0" clip-rule="evenodd"/></clipPath><clipPath id="b"><path d="M-130,833.713H1246.316V-145H-130Z" transform="translate(130 145)" fill="#53e4c0"/></clipPath><clipPath id="c"><rect width="76.462" height="76.462" fill="#53e4c0"/></clipPath><clipPath id="d"><path d="M47.5-25.149,36.4-37.024l7.847-8.4,18.946,20.27ZM36.4-37.023,25.3-25.149V-57.293L14.2-45.419V-57.293H36.4Zm7.848-20.27h11.1l-11.1,11.874Zm-6.407-21.93A37.839,37.839,0,0,0,0-41.384,37.839,37.839,0,0,0,37.839-3.545,37.839,37.839,0,0,0,75.678-41.384,37.839,37.839,0,0,0,37.839-79.223Z" transform="translate(0 79.223)" fill="#53e4c0" clip-rule="evenodd"/></clipPath><clipPath id="e"><path d="M0-3.538H76.462V-80H0Z" transform="translate(0 80)" fill="#53e4c0"/></clipPath></defs><g clip-path="url(#a)"><g transform="translate(-124.251 -62.868)" clip-path="url(#b)"><g transform="translate(124.251 62.125)" clip-path="url(#c)"><g transform="translate(0 0.742)" clip-path="url(#d)"><g transform="translate(0 -0.742)" clip-path="url(#e)"><path d="M-5-84.223H80.235V1.012H-5Z" transform="translate(0.221 80.187)" fill="#53e4c0"/></g></g></g></g></g></svg>