<svg xmlns="http://www.w3.org/2000/svg" width="196.448" height="71.056" viewBox="0 0 196.448 71.056"><g transform="translate(-22.675 -22.5)"><rect width="195.055" height="69.662" transform="translate(23.372 23.197)" fill="#fff"/><path d="M219.123,93.556H22.675V22.5H219.123ZM24.068,92.162H217.73V23.893H24.068Z" fill="#c19a67"/><g transform="translate(36.419 37.129)">
<path class="vip" d="M92.092,77.14a20.093,20.093,0,1,0,20.093,20.092A20.115,20.115,0,0,0,92.092,77.14M74.028,97.232a18,18,0,0,1,1.564-7.352l8.617,23.61A18.065,18.065,0,0,1,74.028,97.232M92.092,115.3a18.086,18.086,0,0,1-5.1-.736l5.421-15.75,5.552,15.213a1.69,1.69,0,0,0,.13.249,18.039,18.039,0,0,1-6,1.025m2.49-26.537c1.087-.057,2.067-.171,2.067-.171a.747.747,0,0,0-.115-1.489s-2.926.23-4.815.23c-1.775,0-4.758-.23-4.758-.23a.747.747,0,0,0-.114,1.489s.921.115,1.895.171l2.814,7.711L87.6,108.33,81.024,88.762c1.088-.057,2.067-.171,2.067-.171a.747.747,0,0,0-.116-1.489s-2.925.23-4.814.23c-.339,0-.738-.009-1.163-.022a18.06,18.06,0,0,1,27.292-3.4c-.077-.005-.154-.015-.234-.015a3.128,3.128,0,0,0-3.034,3.206c0,1.489.859,2.748,1.774,4.237a9.517,9.517,0,0,1,1.489,4.982,16.824,16.824,0,0,1-1.375,5.84l-1.8,6.021Zm6.593,24.084,5.517-15.953a17.049,17.049,0,0,0,1.374-6.47,13.85,13.85,0,0,0-.121-1.858,18.068,18.068,0,0,1-6.77,24.281" transform="translate(-72 -76.544)" fill="#151e25"/>
<path class="vip" d="M240.282,119.551l-4.059,11.975a21.079,21.079,0,0,0-.9,4.144h-.1a21.1,21.1,0,0,0-.9-4.144l-4.059-11.975h-5.427l7.7,20.2h5.488l7.7-20.2Z" transform="translate(-182.242 -107.137)" fill="#151e25"/>
<path class="vip" d="M305.512,119.54l-1.535,4.028v16.173H309.4v-20.2Z" transform="translate(-239.337 -107.129)" fill="#151e25"/>
<path class="vip" d="M349.758,120.942a6.555,6.555,0,0,0-5.6-2.764,6.066,6.066,0,0,0-5.536,3h-.253l-.777-2.62h-4.4v29.386h5.428v-8.481q0-.4-.289-2.927h.289a6.341,6.341,0,0,0,5.392,2.584,6.924,6.924,0,0,0,4.12-1.247,7.884,7.884,0,0,0,2.7-3.632,15.16,15.16,0,0,0,.949-5.62q0-4.914-2.024-7.679m-7.109,13.714a3.45,3.45,0,0,1-3.062-1.409,8.507,8.507,0,0,1-.967-4.662v-.6a7.208,7.208,0,0,1,.976-4.147,3.48,3.48,0,0,1,2.981-1.256,3.115,3.115,0,0,1,2.864,1.491,8.724,8.724,0,0,1,.912,4.472q0,6.107-3.7,6.107" transform="translate(-260.411 -106.146)" fill="#151e25"/>
<path d="M450.946,79.689h3.3V84.37a9.767,9.767,0,0,1-1.565.375,11.976,11.976,0,0,1-1.792.12,4.873,4.873,0,0,1-2.5-.6,3.833,3.833,0,0,1-1.545-1.7,6,6,0,0,1-.528-2.615,5.473,5.473,0,0,1,.582-2.588,4.1,4.1,0,0,1,1.692-1.712,5.488,5.488,0,0,1,2.675-.609,7.552,7.552,0,0,1,1.518.147,6.769,6.769,0,0,1,1.331.415l-.455,1.043a8.728,8.728,0,0,0-1.143-.381A5.183,5.183,0,0,0,451.2,76.1a3.45,3.45,0,0,0-2.668,1.036,3.991,3.991,0,0,0-.957,2.816,5.164,5.164,0,0,0,.368,2.013,2.864,2.864,0,0,0,1.157,1.364,3.9,3.9,0,0,0,2.073.488,7.287,7.287,0,0,0,1.07-.067,7.972,7.972,0,0,0,.8-.16V80.759h-2.1Z" transform="translate(-342.014 -75.035)" fill="#c19a67"/><path d="M494.875,79.909a6.2,6.2,0,0,1-.5,2.588,3.857,3.857,0,0,1-1.485,1.719,4.461,4.461,0,0,1-2.414.615,4.571,4.571,0,0,1-2.468-.615,3.731,3.731,0,0,1-1.465-1.725,6.487,6.487,0,0,1-.482-2.6,6.362,6.362,0,0,1,.482-2.561,3.737,3.737,0,0,1,1.465-1.719A4.6,4.6,0,0,1,490.488,75a4.469,4.469,0,0,1,2.408.609,3.83,3.83,0,0,1,1.478,1.712,6.2,6.2,0,0,1,.5,2.588m-7.544,0a4.705,4.705,0,0,0,.762,2.842,3.243,3.243,0,0,0,4.755,0,5.716,5.716,0,0,0,.006-5.671,2.736,2.736,0,0,0-2.367-1.023,2.789,2.789,0,0,0-2.394,1.023,4.644,4.644,0,0,0-.762,2.829" transform="translate(-370.683 -75)" fill="#c19a67"/><path d="M530.077,85.078v-9.55h1.2v8.48h4.173v1.07Z" transform="translate(-402.434 -75.381)" fill="#c19a67"/><path d="M567.678,80.21a4.738,4.738,0,0,1-1.318,3.645,5.188,5.188,0,0,1-3.671,1.224h-2.662v-9.55h2.943a5.484,5.484,0,0,1,2.494.535,3.763,3.763,0,0,1,1.638,1.578,5.257,5.257,0,0,1,.575,2.568m-1.271.04a3.693,3.693,0,0,0-.943-2.8,3.74,3.74,0,0,0-2.668-.889h-1.565v7.49h1.3q3.878,0,3.878-3.8" transform="translate(-424.038 -75.382)" fill="#c19a67"/><path d="M450.679,142.574l-1.15-2.956h-3.785l-1.137,2.956H443.39l3.732-9.59H448.2l3.719,9.59Zm-1.511-4.026-1.07-2.889q-.04-.107-.133-.388t-.181-.582q-.087-.3-.141-.461-.107.415-.22.809t-.194.622l-1.084,2.889Z" transform="translate(-339.902 -116.827)" fill="#c19a67"/><path d="M485.458,137.29h3.3v4.681a9.774,9.774,0,0,1-1.565.375,11.98,11.98,0,0,1-1.792.12,4.877,4.877,0,0,1-2.5-.6,3.834,3.834,0,0,1-1.545-1.7,6,6,0,0,1-.528-2.615,5.474,5.474,0,0,1,.582-2.588,4.093,4.093,0,0,1,1.692-1.712,5.486,5.486,0,0,1,2.675-.609,7.548,7.548,0,0,1,1.518.147,6.786,6.786,0,0,1,1.331.415l-.455,1.043a8.7,8.7,0,0,0-1.143-.381,5.167,5.167,0,0,0-1.317-.167,3.449,3.449,0,0,0-2.668,1.037,3.99,3.99,0,0,0-.957,2.815,5.162,5.162,0,0,0,.368,2.013,2.863,2.863,0,0,0,1.157,1.364,3.894,3.894,0,0,0,2.073.488,7.284,7.284,0,0,0,1.07-.067,7.936,7.936,0,0,0,.8-.161V138.36h-2.1Z" transform="translate(-366.91 -116.585)" fill="#c19a67"/><path d="M527.638,142.678H522.3v-9.55h5.337v1.057H523.5v2.983H527.4v1.043H523.5v3.411h4.133Z" transform="translate(-396.825 -116.931)" fill="#c19a67"/><path d="M561.36,142.678h-1.4l-5.109-7.931h-.054q.026.468.067,1.164t.04,1.431v5.337h-1.11v-9.55h1.391l5.1,7.9h.054q-.014-.214-.033-.642t-.04-.93q-.02-.5-.02-.943v-5.39h1.124Z" transform="translate(-419.539 -116.931)" fill="#c19a67"/><path d="M597.916,133.705a3.021,3.021,0,0,0-2.421,1.03,4.2,4.2,0,0,0-.883,2.822,4.408,4.408,0,0,0,.822,2.815,2.959,2.959,0,0,0,2.468,1.037,6.261,6.261,0,0,0,1.177-.107q.562-.107,1.11-.267v1.043a5.783,5.783,0,0,1-1.1.294,8.484,8.484,0,0,1-1.358.094,4.558,4.558,0,0,1-2.434-.6,3.7,3.7,0,0,1-1.465-1.712,6.438,6.438,0,0,1-.488-2.609,5.834,5.834,0,0,1,.528-2.547,3.977,3.977,0,0,1,1.558-1.726,4.756,4.756,0,0,1,2.5-.622,5.824,5.824,0,0,1,2.635.562l-.481,1.017a7.532,7.532,0,0,0-.983-.361,4.15,4.15,0,0,0-1.183-.161" transform="translate(-448.069 -116.585)" fill="#c19a67"/><path d="M629.333,137.822l2.488-4.695h1.3l-3.184,5.845v3.7h-1.2v-3.652l-3.184-5.9h1.311Z" transform="translate(-471.302 -116.93)" fill="#c19a67"/><path d="M450.573,190.728a4.144,4.144,0,0,1,2.729.736,2.587,2.587,0,0,1,.856,2.073,3.188,3.188,0,0,1-.354,1.478,2.62,2.62,0,0,1-1.19,1.117,5.017,5.017,0,0,1-2.267.428h-1.1v3.719h-1.2v-9.55Zm-.107,1.03h-1.217v3.772h.963a3.736,3.736,0,0,0,2.033-.441,1.66,1.66,0,0,0,.669-1.5,1.624,1.624,0,0,0-.6-1.378,3.055,3.055,0,0,0-1.853-.455" transform="translate(-343.26 -158.48)" fill="#c19a67"/><path d="M482.119,200.174l-1.151-2.956h-3.785l-1.137,2.956H474.83l3.731-9.59h1.084l3.718,9.59Zm-1.512-4.026-1.07-2.889c-.026-.071-.071-.2-.133-.388s-.123-.381-.181-.582-.1-.354-.14-.461q-.107.415-.221.809t-.194.622l-1.083,2.889Z" transform="translate(-362.582 -158.377)" fill="#c19a67"/><path d="M517.592,190.728a4.2,4.2,0,0,1,2.628.676,2.448,2.448,0,0,1,.849,2.04,2.605,2.605,0,0,1-.281,1.271,2.412,2.412,0,0,1-.716.816,3.491,3.491,0,0,1-.916.468l2.622,4.28h-1.4l-2.314-3.946h-1.9v3.946h-1.2v-9.55Zm-.067,1.044h-1.364v3.544h1.431a2.569,2.569,0,0,0,1.7-.462,1.7,1.7,0,0,0,.535-1.358,1.512,1.512,0,0,0-.562-1.331,3.058,3.058,0,0,0-1.739-.394" transform="translate(-391.527 -158.48)" fill="#c19a67"/><path d="M549.623,200.278h-1.2v-8.493h-2.983v-1.057h7.156v1.057h-2.969Z" transform="translate(-413.514 -158.48)" fill="#c19a67"/><path d="M588.671,200.278h-1.4l-5.109-7.931H582.1q.026.469.067,1.164t.04,1.431v5.337H581.1v-9.55h1.391l5.1,7.9h.054q-.014-.214-.033-.642c-.014-.285-.027-.6-.04-.93s-.02-.648-.02-.943v-5.39h1.123Z" transform="translate(-439.24 -158.48)" fill="#c19a67"/><path d="M627.718,200.278h-5.337v-9.55h5.337v1.057h-4.133v2.983h3.893v1.043h-3.893v3.411h4.133Z" transform="translate(-469.018 -158.48)" fill="#c19a67"/><path d="M656.5,190.728a4.2,4.2,0,0,1,2.628.676,2.447,2.447,0,0,1,.85,2.04,2.6,2.6,0,0,1-.281,1.271,2.409,2.409,0,0,1-.715.816,3.489,3.489,0,0,1-.917.468l2.622,4.28h-1.4l-2.314-3.946h-1.9v3.946h-1.2v-9.55Zm-.067,1.044h-1.364v3.544H656.5a2.568,2.568,0,0,0,1.7-.462,1.694,1.694,0,0,0,.535-1.358,1.511,1.511,0,0,0-.562-1.331,3.058,3.058,0,0,0-1.739-.394" transform="translate(-491.731 -158.48)" fill="#c19a67"/></g></g></svg>
