<svg id="eqincfup6kq1" xmlns="http://www.w3.org/2000/svg" xmlns:xlink="http://www.w3.org/1999/xlink" viewBox="0 0 150.318000 110.406000" shape-rendering="geometricPrecision" text-rendering="geometricPrecision"><style><![CDATA[#eqincfup6kq9_ts {animation: eqincfup6kq9_ts__ts 1500ms linear infinite normal forwards}@keyframes eqincfup6kq9_ts__ts { 0% {transform: translate(631.481000px,132.719000px) scale(0,1);animation-timing-function: cubic-bezier(0.390000,0.575000,0.565000,1)} 20% {transform: translate(631.481000px,132.719000px) scale(1,1)} 100% {transform: translate(631.481000px,132.719000px) scale(1,1)} }#eqincfup6kq9 {animation: eqincfup6kq9_c_o 1500ms linear infinite normal forwards}@keyframes eqincfup6kq9_c_o { 0% {opacity: 1} 60% {opacity: 1;animation-timing-function: cubic-bezier(0.390000,0.575000,0.565000,1)} 73.333333% {opacity: 0} 100% {opacity: 0} }#eqincfup6kq10_ts {animation: eqincfup6kq10_ts__ts 1500ms linear infinite normal forwards}@keyframes eqincfup6kq10_ts__ts { 0% {transform: translate(631.481000px,146.577000px) scale(0,1)} 6.666667% {transform: translate(631.481000px,146.577000px) scale(0,1);animation-timing-function: cubic-bezier(0.390000,0.575000,0.565000,1)} 26.666667% {transform: translate(631.481000px,146.577000px) scale(1,1)} 100% {transform: translate(631.481000px,146.577000px) scale(1,1)} }#eqincfup6kq10 {animation: eqincfup6kq10_c_o 1500ms linear infinite normal forwards}@keyframes eqincfup6kq10_c_o { 0% {opacity: 1} 60% {opacity: 1;animation-timing-function: cubic-bezier(0.390000,0.575000,0.565000,1)} 73.333333% {opacity: 0} 100% {opacity: 0} }#eqincfup6kq11_ts {animation: eqincfup6kq11_ts__ts 1500ms linear infinite normal forwards}@keyframes eqincfup6kq11_ts__ts { 0% {transform: translate(631.481000px,160.173000px) scale(0,1)} 13.333333% {transform: translate(631.481000px,160.173000px) scale(0,1);animation-timing-function: cubic-bezier(0.390000,0.575000,0.565000,1)} 33.333333% {transform: translate(631.481000px,160.173000px) scale(1,1)} 100% {transform: translate(631.481000px,160.173000px) scale(1,1)} }#eqincfup6kq11 {animation: eqincfup6kq11_c_o 1500ms linear infinite normal forwards}@keyframes eqincfup6kq11_c_o { 0% {opacity: 1} 60% {opacity: 1;animation-timing-function: cubic-bezier(0.390000,0.575000,0.565000,1)} 73.333333% {opacity: 0} 100% {opacity: 0} }]]></style><g id="eqincfup6kq2" transform="matrix(1 0 0 1 -573.47299999999996 -98.77100000000000)"><path id="eqincfup6kq3" d="M601.055000,102.261000C586.655000,102.261000,574.973000,112.609000,574.973000,125.375000C575.086447,132.532201,578.648736,139.194221,584.538000,143.263000L585.338000,148.411000C585.341570,148.707513,585.503434,148.979479,585.762360,149.124015C586.021285,149.268551,586.337736,149.263587,586.592000,149.111000L591.659000,146.943000C594.682716,147.974386,597.856224,148.498461,601.051000,148.494000C615.451000,148.494000,627.132000,138.146000,627.132000,125.380000C627.132000,112.614000,615.459000,102.261000,601.055000,102.261000Z" fill="rgb(255,255,255)" stroke="rgb(83,228,192)" stroke-width="3" stroke-miterlimit="10"/><path id="eqincfup6kq4" d="" fill="none" stroke="rgb(138,138,142)" stroke-width="3" stroke-linecap="round" stroke-linejoin="round" stroke-dasharray="0.100000,4"/><path id="eqincfup6kq5" d="M700.121000,198.434000C697.272588,204.061282,691.520925,207.627567,685.214000,207.677000L685.200000,207.677000C682.707687,207.672506,680.247831,207.111522,678,206.035000L673.455000,204.090000C667.727481,205.514820,661.847082,206.233163,655.945000,206.229000C647.192611,206.256853,638.509659,204.675577,630.329000,201.564000" fill="none" stroke="rgb(138,138,142)" stroke-width="3" stroke-linecap="round" stroke-linejoin="round" stroke-dasharray="0.100000,4"/><path id="eqincfup6kq6" d="M717.619000,123.400000C720.697512,130.438290,722.288115,138.036894,722.291000,145.719000C722.291000,162.019000,715.083000,177.613000,702.408000,188.938000L701.796000,192.858000C701.574983,194.800794,701.007688,196.688277,700.121000,198.431000" fill="none" stroke="rgb(138,138,142)" stroke-width="3" stroke-linecap="round" stroke-linejoin="round" stroke-dasharray="0.100000,4"/><path id="eqincfup6kq7" d="M705.600000,117.356000C711.528872,125.628639,714.730478,135.544217,714.759000,145.722000C714.759000,160.822000,707.744000,174.983000,695.396000,185.022000L694.326000,191.876000C694.035295,194.875348,692.286758,197.539381,689.650622,198.999307C687.014485,200.459232,683.828620,200.527931,681.132000,199.183000L674.017000,196.138000C668.144574,197.842486,662.059786,198.704094,655.945000,198.697000C642.901992,198.771339,630.160481,194.776202,619.495000,187.268000" fill="none" stroke="rgb(138,138,142)" stroke-width="3" stroke-linecap="round" stroke-linejoin="round" stroke-dasharray="0.100000,4"/><path id="eqincfup6kq8" d="M655.948000,100.271000C684.273000,100.271000,707.234000,120.620000,707.234000,145.722000C707.234000,159.901000,699.905000,172.560000,688.425000,180.896000L686.845000,191.020000C686.834431,191.601276,686.514691,192.132802,686.006130,192.414511C685.497569,192.696220,684.877379,192.685353,684.379000,192.386000L674.416000,188.123000C668.470226,190.150782,662.230043,191.181352,655.948000,191.173000C627.623000,191.173000,604.662000,170.824000,604.662000,145.722000C604.662000,120.620000,627.623000,100.271000,655.948000,100.271000Z" fill="rgb(255,255,255)" stroke="rgb(22,38,54)" stroke-width="3" stroke-miterlimit="10"/><g id="eqincfup6kq9_ts" transform="translate(631.481000,132.719000) scale(0,1)"><line id="eqincfup6kq9" x1="43.669102" y1="0" x2="0" y2="0" transform="translate(0,0)" fill="none" stroke="rgb(83,228,192)" stroke-width="3" stroke-miterlimit="10"/></g><g id="eqincfup6kq10_ts" transform="translate(631.481000,146.577000) scale(0,1)"><line id="eqincfup6kq10" x1="43.669102" y1="0" x2="0" y2="0" transform="translate(0,0)" fill="none" stroke="rgb(83,228,192)" stroke-width="3" stroke-miterlimit="10"/></g><g id="eqincfup6kq11_ts" transform="translate(631.481000,160.173000) scale(0,1)"><line id="eqincfup6kq11" x1="43.669102" y1="0" x2="0" y2="0" transform="translate(0,0)" fill="none" stroke="rgb(83,228,192)" stroke-width="3" stroke-miterlimit="10"/></g></g></svg>