<svg id="ejwoegb5m7p1" xmlns="http://www.w3.org/2000/svg" xmlns:xlink="http://www.w3.org/1999/xlink" viewBox="0 0 113.747000 119.562000" shape-rendering="geometricPrecision" text-rendering="geometricPrecision"><style><![CDATA[#ejwoegb5m7p5_tr {animation: ejwoegb5m7p5_tr__tr 2000ms linear infinite normal forwards}@keyframes ejwoegb5m7p5_tr__tr { 0% {transform: translate(495.880500px,157.410500px) rotate(0deg)} 100% {transform: translate(495.880500px,157.410500px) rotate(360deg)} }#ejwoegb5m7p6_tr {animation: ejwoegb5m7p6_tr__tr 2000ms linear infinite normal forwards}@keyframes ejwoegb5m7p6_tr__tr { 0% {transform: translate(454.276000px,112.962500px) rotate(360deg)} 100% {transform: translate(454.276000px,112.962500px) rotate(0deg)} }]]></style><g id="ejwoegb5m7p2" transform="matrix(1 0 0 1 -431.65300000000002 -89.28400000000001)"><path id="ejwoegb5m7p3" d="M538.011000,149.937000L534.811000,153.137000C534.822000,153.481000,534.826000,153.823000,534.826000,154.168000C534.826000,154.513000,534.826000,154.855000,534.811000,155.196000L538,158.382000C542.091580,162.485774,542.925502,168.822352,540.035000,173.845000L533.928000,184.420000C531.030002,189.437143,525.126326,191.885938,519.528000,190.393000L515.144000,189.218000Q514.280000,189.743000,513.391000,190.227000L512.216000,194.608000C510.710260,200.205584,505.637565,204.097724,499.841000,204.103000L487.631000,204.103000C481.833344,204.095491,476.760769,200.201707,475.255000,194.603000L474.080000,190.222000Q473.192000,189.739000,472.330000,189.214000" transform="matrix(1 0 0 1 2.14500000000000 3.24400000000000)" fill="none" stroke="rgb(138,138,142)" stroke-width="3" stroke-linecap="round" stroke-linejoin="round" stroke-dasharray="0.100000,4"/><path id="ejwoegb5m7p4" d="M534.378000,147.366000L529.371000,152.372000C529.479000,153.472000,529.531000,154.542000,529.531000,155.615000C529.531000,156.688000,529.478000,157.761000,529.371000,158.855000L534.371000,163.855000C536.644466,166.134839,537.107950,169.655438,535.502000,172.446000L529.400000,183.022000C528.124921,185.221051,525.776974,186.576501,523.235000,186.581000L523.235000,186.581000C522.613083,186.580866,521.993847,186.499511,521.393000,186.339000L514.557000,184.508000C512.793621,185.753428,510.918994,186.833347,508.957000,187.734000L507.121000,194.583000C506.283526,197.691988,503.465807,199.853537,500.246000,199.857000L488.031000,199.857000C484.810369,199.853399,481.992119,197.690937,481.155000,194.581000L479.320000,187.734000C477.358697,186.832009,475.484190,185.752159,473.720000,184.508000L466.881000,186.339000C466.280535,186.499717,465.661602,186.581076,465.040000,186.581000M508.955000,123.495000C510.916541,124.396531,512.791089,125.476404,514.555000,126.721000M499.587000,155.615000C499.587404,153.409781,498.259324,151.421477,496.222083,150.577296C494.184842,149.733115,491.839676,150.199318,490.280208,151.758500C488.720739,153.317683,488.254106,155.662763,489.097913,157.700159C489.941721,159.737555,491.929781,161.066000,494.135000,161.066000" transform="matrix(1 0 0 1 1.74500000000000 1.79400000000000)" fill="none" stroke="rgb(138,138,142)" stroke-width="3" stroke-linecap="round" stroke-linejoin="round" stroke-dasharray="0.100000,4"/><g id="ejwoegb5m7p5_tr" transform="translate(495.880500,157.410500) rotate(0)"><path id="ejwoegb5m7p5" d="M524.249000,161.730000C523.928381,161.406717,523.782229,160.949295,523.856000,160.500000C524.353637,157.487077,524.353637,154.412923,523.856000,151.400000C523.782398,150.951019,523.928548,150.493973,524.249000,150.171000L530.736000,143.682000C531.190856,143.226177,531.283496,142.521950,530.962000,141.964000L524.862000,131.391000C524.539799,130.833794,523.883880,130.561998,523.262000,130.728000L514.400000,133.100000C513.962555,133.215131,513.496431,133.114026,513.146000,132.828000C510.763083,130.914007,508.098182,129.380509,505.246000,128.282000C504.822713,128.121631,504.501604,127.768561,504.382000,127.332000L502.003000,118.460000C501.836067,117.837798,501.272207,117.405163,500.628000,117.405000L488.422000,117.405000C487.777793,117.405163,487.213933,117.837798,487.047000,118.460000L484.668000,127.332000C484.548543,127.768641,484.227382,128.121770,483.804000,128.282000C480.951818,129.380509,478.286917,130.914007,475.904000,132.828000C475.553569,133.114026,475.087445,133.215131,474.650000,133.100000L465.791000,130.728000C465.169120,130.561998,464.513201,130.833794,464.191000,131.391000L458.091000,141.964000C457.769504,142.521950,457.862144,143.226177,458.317000,143.682000L464.804000,150.171000C465.124452,150.493973,465.270602,150.951019,465.197000,151.400000C464.699399,154.412926,464.699399,157.487074,465.197000,160.500000C465.270771,160.949295,465.124619,161.406717,464.804000,161.730000L458.317000,168.218000C457.862144,168.673823,457.769504,169.378050,458.091000,169.936000L464.191000,180.509000C464.513201,181.066206,465.169120,181.338002,465.791000,181.172000L474.650000,178.800000C475.087604,178.685144,475.553746,178.786624,475.904000,179.073000C478.287435,180.986235,480.952213,182.519663,483.804000,183.619000C484.227239,183.778890,484.548410,184.131658,484.668000,184.568000L487.047000,193.441000C487.213933,194.063202,487.777793,194.495837,488.422000,194.496000L500.630000,194.496000C501.274207,194.495837,501.838067,194.063202,502.005000,193.441000L504.384000,184.568000C504.503590,184.131658,504.824761,183.778890,505.248000,183.619000C508.099787,182.519663,510.764565,180.986235,513.148000,179.073000C513.498254,178.786624,513.964396,178.685144,514.402000,178.800000L523.261000,181.172000C523.882905,181.338367,524.539040,181.066481,524.861000,180.509000L530.961000,169.936000C531.282496,169.378050,531.189856,168.673823,530.735000,168.218000ZM494.525000,167.100000C488.368812,167.099448,483.378632,162.108521,483.379000,155.952333C483.379368,149.796145,488.370145,144.805816,494.526333,144.806000C500.682521,144.806184,505.673000,149.796812,505.673000,155.953000C505.673000,158.909541,504.498450,161.744976,502.407766,163.835473C500.317082,165.925970,497.481542,167.100265,494.525000,167.100000ZM494.525000,172.646000C485.305711,172.646000,477.832000,165.172289,477.832000,155.953000C477.832000,146.733711,485.305711,139.260000,494.525000,139.260000C503.744289,139.260000,511.218000,146.733711,511.218000,155.953000C511.215791,165.170727,503.742727,172.642000,494.525000,172.642000Z" transform="translate(-494.526500,-155.950500)" fill="rgb(255,255,255)" stroke="rgb(22,38,54)" stroke-width="3" stroke-miterlimit="10"/></g><g id="ejwoegb5m7p6_tr" transform="translate(454.276000,112.962500) rotate(360)"><path id="ejwoegb5m7p6" d="M471.381000,116.286000C471.196352,116.100392,471.112251,115.837298,471.155000,115.579000C471.440420,113.845336,471.440420,112.076664,471.155000,110.343000C471.112252,110.084400,471.196329,109.821006,471.381000,109.635000L475.113000,105.902000C475.374756,105.639950,475.428060,105.234841,475.243000,104.914000L471.731000,98.832000C471.545809,98.510931,471.168071,98.354258,470.810000,98.450000L465.710000,99.815000C465.458386,99.880860,465.190449,99.822515,464.989000,99.658000C463.618738,98.557578,462.086661,97.675503,460.447000,97.043000C460.202233,96.951989,460.016173,96.748812,459.947000,96.497000L458.578000,91.397000C458.482744,91.038390,458.158045,90.788812,457.787000,90.789000L450.764000,90.789000C450.393073,90.789160,450.068562,91.038594,449.973000,91.397000L448.605000,96.497000C448.535827,96.748812,448.349767,96.951989,448.105000,97.043000C446.465117,97.675039,444.932972,98.557152,443.563000,99.658000C443.361551,99.822515,443.093614,99.880860,442.842000,99.815000L437.742000,98.450000C437.383953,98.354623,437.006433,98.511206,436.821000,98.832000L433.309000,104.914000C433.123940,105.234841,433.177244,105.639950,433.439000,105.902000L437.171000,109.635000C437.355458,109.821165,437.439820,110.084285,437.398000,110.343000C437.111155,112.076548,437.111155,113.845452,437.398000,115.579000C437.439819,115.837413,437.355434,116.100231,437.171000,116.286000L433.439000,120.019000C433.177244,120.281050,433.123940,120.686159,433.309000,121.007000L436.821000,127.089000C437.005949,127.410345,437.383905,127.567109,437.742000,127.471000L442.842000,126.106000C443.093614,126.040140,443.361551,126.098485,443.563000,126.263000C444.933196,127.363775,446.465276,128.246189,448.105000,128.879000C448.349436,128.969951,448.535399,129.172650,448.605000,129.424000L449.973000,134.529000C450.069246,134.886806,450.393476,135.135615,450.764000,135.136000L457.787000,135.136000C458.157642,135.135961,458.482059,134.887009,458.578000,134.529000L459.947000,129.424000C460.016601,129.172650,460.202564,128.969951,460.447000,128.879000C462.086502,128.245726,463.618514,127.363352,464.989000,126.263000C465.190449,126.098485,465.458386,126.040140,465.710000,126.106000L470.810000,127.471000C471.168095,127.567109,471.546051,127.410345,471.731000,127.089000L475.243000,121.007000C475.428060,120.686159,475.374756,120.281050,475.113000,120.019000ZM454.281000,119.374000C451.687588,119.374000,449.349540,117.811766,448.357084,115.415766C447.364629,113.019766,447.913212,110.261850,449.747031,108.428031C451.580850,106.594212,454.338766,106.045629,456.734766,107.038084C459.130766,108.030540,460.693000,110.368588,460.693000,112.962000C460.691896,116.502240,457.822240,119.371896,454.282000,119.373000Z" transform="translate(-454.276000,-112.962500)" fill="rgb(255,255,255)" stroke="rgb(83,228,192)" stroke-width="3" stroke-linejoin="round"/></g></g></svg>