<svg id="eghiblgx3hrr1" xmlns="http://www.w3.org/2000/svg" xmlns:xlink="http://www.w3.org/1999/xlink" viewBox="0 0 133.844000 133.844000" shape-rendering="geometricPrecision" text-rendering="geometricPrecision"><style><![CDATA[#eghiblgx3hrr5_tr {animation: eghiblgx3hrr5_tr__tr 2000ms linear infinite normal forwards}@keyframes eghiblgx3hrr5_tr__tr { 0% {transform: translate(192.506004px,178.079994px) rotate(360deg)} 6.500000% {transform: translate(192.506004px,178.079994px) rotate(360deg)} 91.500000% {transform: translate(192.506004px,178.079994px) rotate(0deg)} 100% {transform: translate(192.506004px,178.079994px) rotate(0deg)} }#eghiblgx3hrr5 {animation: eghiblgx3hrr5_c_o 2000ms linear infinite normal forwards}@keyframes eghiblgx3hrr5_c_o { 0% {opacity: 0;animation-timing-function: cubic-bezier(0.420000,0,1,1)} 6.500000% {opacity: 1;animation-timing-function: cubic-bezier(0.420000,0,1,1)} 91.500000% {opacity: 1;animation-timing-function: cubic-bezier(0,0,0.580000,1)} 100% {opacity: 0} }#eghiblgx3hrr9 {
           animation-name: eghiblgx3hrr9_c_o, eghiblgx3hrr9_s_do, eghiblgx3hrr9_s_da;
           animation-duration: 2000ms;
           animation-fill-mode: forwards;
           animation-timing-function: linear;
           animation-direction: normal;
           animation-iteration-count: infinite;  
        }@keyframes eghiblgx3hrr9_c_o { 0% {opacity: 1} 91.500000% {opacity: 1;animation-timing-function: cubic-bezier(0,0,0.580000,1)} 100% {opacity: 0} }@keyframes eghiblgx3hrr9_s_do { 0% {stroke-dashoffset: 69.620000;animation-timing-function: cubic-bezier(0.645000,0.045000,0.355000,1)} 91.500000% {stroke-dashoffset: 0} 100% {stroke-dashoffset: 0} }@keyframes eghiblgx3hrr9_s_da { 0% {stroke-dasharray: 69.620000;animation-timing-function: cubic-bezier(0.645000,0.045000,0.355000,1)} 91.500000% {stroke-dasharray: 69.620000} 100% {stroke-dasharray: 69.620000} }#eghiblgx3hrr16 {
           animation-name: eghiblgx3hrr16_c_o, eghiblgx3hrr16_s_do, eghiblgx3hrr16_s_da;
           animation-duration: 2000ms;
           animation-fill-mode: forwards;
           animation-timing-function: linear;
           animation-direction: normal;
           animation-iteration-count: infinite;  
        }@keyframes eghiblgx3hrr16_c_o { 0% {opacity: 1} 91.500000% {opacity: 1;animation-timing-function: cubic-bezier(0,0,0.580000,1)} 100% {opacity: 0} }@keyframes eghiblgx3hrr16_s_do { 0% {stroke-dashoffset: 69.620000;animation-timing-function: cubic-bezier(0.645000,0.045000,0.355000,1)} 91.500000% {stroke-dashoffset: 0} 100% {stroke-dashoffset: 0} }@keyframes eghiblgx3hrr16_s_da { 0% {stroke-dasharray: 69.620000;animation-timing-function: cubic-bezier(0.645000,0.045000,0.355000,1)} 91.500000% {stroke-dasharray: 69.620000} 100% {stroke-dasharray: 69.620000} }]]></style><g id="eghiblgx3hrr2" transform="matrix(1 0 0 1 -163.52900000000000 -86.34399999999999)"><rect id="eghiblgx3hrr3" width="54.957000" height="54.957000" rx="0" ry="0" transform="matrix(1 0 0 1 165.02900000000000 150.60100000000000)" fill="rgb(255,255,255)" stroke="rgb(22,38,54)" stroke-width="3" stroke-linecap="round" stroke-linejoin="round"/><rect id="eghiblgx3hrr4" width="54.957000" height="54.957000" rx="0" ry="0" transform="matrix(1 0 0 1 227.78600000000000 150.60100000000000)" fill="rgb(255,255,255)" stroke="rgb(22,38,54)" stroke-width="3" stroke-linecap="round" stroke-linejoin="round"/><g id="eghiblgx3hrr5_tr" transform="translate(192.506004,178.079994) rotate(360)"><g id="eghiblgx3hrr5" transform="translate(-192.506004,-178.079994)" opacity="0"><path id="eghiblgx3hrr6" d="M190.608000,153.216000C198.379621,153.216552,204.679368,159.517046,204.679000,167.288667C204.678632,175.060287,198.378288,181.360184,190.606667,181.360000C182.835046,181.359816,176.535000,175.059621,176.535000,167.288000" transform="matrix(1 0 0 1 1.89900000000000 10.79200000000000)" fill="rgb(255,255,255)" stroke="rgb(83,228,192)" stroke-width="3" stroke-linecap="round" stroke-miterlimit="10"/><line id="eghiblgx3hrr7" x1="0" y1="6.591000" x2="0" y2="0" transform="matrix(1 0 0 1 192.50700000000001 174.78399999999999)" fill="rgb(255,255,255)" stroke="rgb(83,228,192)" stroke-width="3" stroke-linecap="round" stroke-miterlimit="10"/></g></g><line id="eghiblgx3hrr8" x1="0" y1="0" x2="33.885000" y2="0" transform="matrix(1 0 0 1 238.32200000000000 192.15199999999999)" fill="rgb(255,255,255)" stroke="rgb(22,38,54)" stroke-width="3" stroke-linecap="round" stroke-linejoin="round"/><path id="eghiblgx3hrr9" d="M227.937000,170.884000L238.458000,163.219000L244.879000,166.519000L251.445000,167.574000L261.821000,157.901000" transform="matrix(1 0 0 1 10.38500000000000 11.56400000000000)" fill="rgb(255,255,255)" stroke="rgb(83,228,192)" stroke-width="3" stroke-linecap="round" stroke-miterlimit="10" stroke-dashoffset="69.620000" stroke-dasharray="69.620000"/><rect id="eghiblgx3hrr10" width="117.714000" height="54.385000" rx="0" ry="0" transform="matrix(1 0 0 1 165.02900000000000 87.84500000000000)" fill="rgb(255,255,255)" stroke="rgb(22,38,54)" stroke-width="3" stroke-linecap="round" stroke-linejoin="round"/><circle id="eghiblgx3hrr11" r="4.766000" transform="matrix(1 0 0 1 178.25399999999999 101.49300000000001)" fill="rgb(255,255,255)" stroke="rgb(83,228,192)" stroke-width="3" stroke-linecap="round" stroke-miterlimit="10"/><line id="eghiblgx3hrr12" x1="0" y1="0" x2="48.602000" y2="0" transform="matrix(1 0 0 1 192.50700000000001 101.49400000000000)" fill="rgb(255,255,255)" stroke="rgb(22,38,54)" stroke-width="3" stroke-linecap="round" stroke-linejoin="round"/><line id="eghiblgx3hrr13" x1="0" y1="0" x2="97.077000" y2="0" transform="matrix(1 0 0 1 175.13000000000000 133.07400000000001)" fill="rgb(255,255,255)" stroke="rgb(22,38,54)" stroke-width="3" stroke-linecap="round" stroke-linejoin="round"/><line id="eghiblgx3hrr14" x1="0" y1="0" x2="17.938000" y2="0" transform="matrix(1 0 0 1 254.26900000000001 110.08300000000000)" fill="rgb(255,255,255)" stroke="rgb(22,38,54)" stroke-width="3" stroke-linecap="round" stroke-linejoin="round"/><line id="eghiblgx3hrr15" x1="0" y1="0" x2="17.938000" y2="0" transform="matrix(1 0 0 1 254.26900000000001 118.87500000000000)" fill="rgb(255,255,255)" stroke="rgb(22,38,54)" stroke-width="3" stroke-linecap="round" stroke-linejoin="round"/><path id="eghiblgx3hrr16" d="M174.072000,121.892000L194.424000,114.227000L206.844000,117.527000L219.544000,118.582000L239.615000,108.909000" transform="matrix(1 0 0 1 1.49300000000000 3.47700000000000)" fill="none" stroke="rgb(83,228,192)" stroke-width="3" stroke-linecap="round" stroke-miterlimit="10" stroke-dashoffset="69.620000" stroke-dasharray="69.620000"/><path id="eghiblgx3hrr17" d="M170.664000,211.426000L285.095000,211.426000C286.907599,211.426000,288.377000,209.956599,288.377000,208.144000L288.377000,92.071000" transform="matrix(1 0 0 1 0.93000000000000 0.69800000000000)" fill="none" stroke="rgb(138,138,142)" stroke-width="3" stroke-linecap="round" stroke-linejoin="round" stroke-dasharray="0.100000,4"/><path id="eghiblgx3hrr18" d="M176.300000,217.061000L284.165000,217.061000C289.603348,217.061000,294.012000,212.652348,294.012000,207.214000L294.012000,97.706000" transform="matrix(1 0 0 1 1.86000000000000 1.62800000000000)" fill="none" stroke="rgb(138,138,142)" stroke-width="3" stroke-linecap="round" stroke-linejoin="round" stroke-dasharray="0.100000,4"/></g></svg>