<svg xmlns="http://www.w3.org/2000/svg" width="63.15" height="27.68" viewBox="0 0 63.15 27.68"><g transform="translate(0 0)"><path d="M13.821,0A13.84,13.84,0,1,0,27.66,13.841v0A13.853,13.853,0,0,0,13.821,0ZM1.379,13.839A12.383,12.383,0,0,1,2.457,8.775L8.392,25.036A12.443,12.443,0,0,1,1.379,13.839ZM13.821,26.282a12.443,12.443,0,0,1-3.515-.509L14.04,14.925,17.864,25.4a1.131,1.131,0,0,0,.09.172A12.418,12.418,0,0,1,13.821,26.282ZM15.539,8c.749-.039,1.424-.123,1.424-.123a.514.514,0,0,0-.079-1.025s-2.015.158-3.314.158c-1.227,0-3.277-.158-3.277-.158a.514.514,0,0,0-.08,1.025s.634.079,1.306.123l1.938,5.312-2.729,8.161L6.2,8c.749-.039,1.424-.123,1.424-.123a.514.514,0,0,0-.08-1.025s-2.015.158-3.314.158c-.233,0-.508-.006-.8-.016a12.44,12.44,0,0,1,18.8-2.335c-.054,0-.106-.011-.161-.011a2.149,2.149,0,0,0-2.086,2.209A5.789,5.789,0,0,0,21.2,9.779a6.568,6.568,0,0,1,1.026,3.436,11.589,11.589,0,0,1-.947,4.023l-1.249,4.141ZM20.08,24.593l3.8-10.988a11.724,11.724,0,0,0,.946-4.456,9.459,9.459,0,0,0-.083-1.28,12.444,12.444,0,0,1-4.664,16.724Z" transform="translate(0.02 0)" fill="#fff"/><path d="M251.394,60.61l-2.8,8.247a14.658,14.658,0,0,0-.621,2.855H247.9a14.5,14.5,0,0,0-.622-2.855l-2.8-8.247H240.75l5.308,13.916h3.779l5.3-13.913Z" transform="translate(-211.201 -53.172)" fill="#fff"/><path d="M365.578,60.59l-1.058,2.775V74.5h3.738V60.59Z" transform="translate(-319.781 -53.154)" fill="#fff"/><path d="M421.62,60.385a4.51,4.51,0,0,0-3.859-1.9,4.178,4.178,0,0,0-3.813,2.065h-.174l-.535-1.8H410.21V78.979h3.738V73.138q0-.274-.2-2.016h.2a4.367,4.367,0,0,0,3.714,1.78,4.763,4.763,0,0,0,2.837-.859,5.428,5.428,0,0,0,1.861-2.5,10.464,10.464,0,0,0,.654-3.871A8.793,8.793,0,0,0,421.62,60.385Zm-4.9,9.45a2.374,2.374,0,0,1-2.108-.971,5.872,5.872,0,0,1-.666-3.211v-.411a4.973,4.973,0,0,1,.673-2.856,2.382,2.382,0,0,1,2.053-.859,2.136,2.136,0,0,1,1.972,1.027,6.1,6.1,0,0,1,.628,3.08q0,4.194-2.552,4.192Z" transform="translate(-359.864 -51.303)" fill="#fff"/></g></svg>